<svg width="28" height="28" viewBox="0 0 28 28" fill="none" xmlns="http://www.w3.org/2000/svg">
<path d="M28 14C28 20.7655 21.7315 26.25 14 26.25C12.6134 26.2519 11.2325 26.0718 9.89275 25.7145C8.87075 26.2325 6.524 27.2265 2.576 27.874C2.226 27.93 1.96 27.566 2.09825 27.2405C2.71775 25.7775 3.27775 23.828 3.44575 22.05C1.302 19.8975 0 17.08 0 14C0 7.2345 6.2685 1.75 14 1.75C21.7315 1.75 28 7.2345 28 14ZM8.75 14C8.75 13.5359 8.56563 13.0908 8.23744 12.7626C7.90925 12.4344 7.46413 12.25 7 12.25C6.53587 12.25 6.09075 12.4344 5.76256 12.7626C5.43437 13.0908 5.25 13.5359 5.25 14C5.25 14.4641 5.43437 14.9092 5.76256 15.2374C6.09075 15.5656 6.53587 15.75 7 15.75C7.46413 15.75 7.90925 15.5656 8.23744 15.2374C8.56563 14.9092 8.75 14.4641 8.75 14V14ZM15.75 14C15.75 13.5359 15.5656 13.0908 15.2374 12.7626C14.9092 12.4344 14.4641 12.25 14 12.25C13.5359 12.25 13.0908 12.4344 12.7626 12.7626C12.4344 13.0908 12.25 13.5359 12.25 14C12.25 14.4641 12.4344 14.9092 12.7626 15.2374C13.0908 15.5656 13.5359 15.75 14 15.75C14.4641 15.75 14.9092 15.5656 15.2374 15.2374C15.5656 14.9092 15.75 14.4641 15.75 14V14ZM21 15.75C21.4641 15.75 21.9092 15.5656 22.2374 15.2374C22.5656 14.9092 22.75 14.4641 22.75 14C22.75 13.5359 22.5656 13.0908 22.2374 12.7626C21.9092 12.4344 21.4641 12.25 21 12.25C20.5359 12.25 20.0908 12.4344 19.7626 12.7626C19.4344 13.0908 19.25 13.5359 19.25 14C19.25 14.4641 19.4344 14.9092 19.7626 15.2374C20.0908 15.5656 20.5359 15.75 21 15.75V15.75Z" fill="white"/>
</svg>
